<svg aria-hidden="true" style="position: absolute; width: 0; height: 0; overflow: hidden;" version="1.1" xmlns="http://www.w3.org/2000/svg" xmlns:xlink="http://www.w3.org/1999/xlink">
<defs>
<symbol id="icon-instagram" viewBox="0 0 32 32">
<path   d="M22.666 2.666c1.767 0.005 3.459 0.709 4.709 1.959s1.953 2.942 1.959 4.709v13.333c-0.005 1.767-0.709 3.459-1.959 4.709s-2.942 1.953-4.709 1.959h-13.333c-1.767-0.005-3.459-0.709-4.709-1.959s-1.953-2.942-1.959-4.709v-13.333c0.005-1.767 0.709-3.459 1.959-4.709s2.942-1.953 4.709-1.959h13.333zM22.666 0h-13.333c-5.134 0-9.334 4.2-9.334 9.334v13.333c0 5.134 4.2 9.334 9.334 9.334h13.333c5.134 0 9.334-4.2 9.334-9.334v-13.333c0-5.134-4.2-9.334-9.334-9.334z"></path>
<path   d="M24.666 9.336c-0.395 0-0.782-0.117-1.111-0.337s-0.585-0.532-0.737-0.898-0.191-0.768-0.114-1.156c0.077-0.388 0.268-0.744 0.547-1.024s0.636-0.47 1.024-0.547 0.79-0.038 1.155 0.114c0.365 0.151 0.678 0.408 0.898 0.737s0.337 0.716 0.337 1.111c0.001 0.263-0.051 0.523-0.151 0.766s-0.248 0.464-0.433 0.649c-0.186 0.186-0.407 0.333-0.649 0.433s-0.503 0.152-0.766 0.151zM16 10.669c1.055 0 2.086 0.313 2.963 0.899s1.561 1.419 1.964 2.394c0.404 0.975 0.509 2.047 0.303 3.082s-0.714 1.985-1.46 2.731c-0.746 0.746-1.696 1.254-2.731 1.46s-2.107 0.1-3.082-0.303c-0.975-0.404-1.808-1.087-2.394-1.964s-0.899-1.908-0.899-2.963c0.002-1.414 0.564-2.77 1.564-3.77s2.356-1.562 3.77-1.564zM16 8.003c-1.582 0-3.129 0.469-4.445 1.348s-2.341 2.128-2.946 3.59c-0.605 1.462-0.764 3.070-0.455 4.622s1.071 2.977 2.189 4.096c1.119 1.119 2.544 1.881 4.096 2.189s3.16 0.15 4.622-0.455c1.462-0.606 2.711-1.631 3.59-2.947s1.348-2.862 1.348-4.445c0-2.122-0.843-4.157-2.343-5.657s-3.535-2.343-5.657-2.343z"></path>
</symbol>
<symbol id="icon-youtube" viewBox="0 0 41 32">
<path  d="M40.466 7.066c0-3.75-2.633-6.766-5.887-6.766-4.407-0.216-8.902-0.299-13.496-0.299h-1.432c-4.582 0-9.085 0.083-13.493 0.3-3.246 0-5.879 3.033-5.879 6.783-0.199 2.966-0.283 5.932-0.278 8.899-0.008 2.967 0.082 5.936 0.271 8.908 0 3.75 2.633 6.791 5.879 6.791 4.63 0.225 9.38 0.325 14.209 0.317 4.837 0.017 9.573-0.089 14.209-0.317 3.254 0 5.887-3.042 5.887-6.791 0.191-2.975 0.279-5.942 0.271-8.916 0.018-2.967-0.068-5.936-0.259-8.908zM16.468 24.157v-16.375l11.536 8.183-11.536 8.191z"></path>
</symbol>
<symbol id="icon-twitter" viewBox="0 0 36 32">
<path 

d="M36.364 3.792c-1.364 0.652-2.807 1.081-4.284 1.275 1.552-1 2.719-2.588 3.283-4.467-1.467 0.944-3.070 1.606-4.739 1.958-0.703-0.81-1.548-1.455-2.485-1.895s-1.945-0.666-2.963-0.663c-4.123 0-7.459 3.617-7.459 8.075-0.003 0.62 0.062 1.238 0.192 1.842-2.956-0.152-5.851-0.982-8.499-2.436s-4.991-3.499-6.88-6.006c-0.662 1.228-1.013 2.63-1.014 4.058 0 2.8 1.328 5.275 3.333 6.725-1.188-0.031-2.352-0.377-3.392-1.008v0.1c0 3.917 2.576 7.175 5.985 7.917-0.641 0.188-1.302 0.283-1.965 0.283-0.471 0.001-0.94-0.049-1.402-0.15 0.948 3.208 3.706 5.542 6.973 5.608-2.655 2.251-5.915 3.467-9.267 3.458-0.595-0.001-1.189-0.040-1.78-0.117 3.41 2.395 7.374 3.662 11.42 3.65 13.739 0 21.245-12.308 21.245-22.983 0-0.35-0.008-0.7-0.024-1.042 1.457-1.14 2.717-2.557 3.722-4.183z"></path>
</symbol>
<symbol id="icon-facebook" viewBox="0 0 32 32">
<path 
d="M32 16.097c0-8.889-7.164-16.097-16-16.097s-16 7.208-16 16.097c0 8.034 5.85 14.693 13.5 15.902v-11.248h-4.064v-4.654h4.064v-3.546c0-4.034 2.389-6.263 6.044-6.263 1.751 0 3.582 0.315 3.582 0.315v3.962h-2.018c-1.986 0-2.608 1.24-2.608 2.515v3.018h4.437l-0.709 4.654h-3.728v11.249c7.65-1.208 13.5-7.867 13.5-15.903z"></path>
</symbol>
</defs>
</svg>
