<svg aria-hidden="true" style="position: absolute; width: 0; height: 0; overflow: hidden;" version="1.1" xmlns="http://www.w3.org/2000/svg" xmlns:xlink="http://www.w3.org/1999/xlink">
<defs>
<symbol id="icon-logo" viewBox="0 0 44 44" fill="#8BAA36">
<rect width="44" height="44" rx="12" fill="#8BAA36"/>
<path d="M10 10.1025V15.5561V15.6661V15.5561C10 17.1133 10.6794 18.4919 11.7328 19.3842C12.2479 19.8205 12.5882 20.4096 12.5882 21.0635V30.1667C12.5882 31.1788 13.4579 32.0001 14.5294 32.0001C15.6009 32.0001 16.4706 31.1788 16.4706 30.1667V21.0635C16.4706 20.4096 16.8109 19.8205 17.326 19.3842C18.3794 18.4919 19.0588 17.1133 19.0588 15.5561V10.1025V15.5561" stroke="#FAFAFA" stroke-width="2" stroke-linecap="round" stroke-linejoin="round"/>
<path d="M14.5293 16.1112V10" stroke="#FAFAFA" stroke-width="2" stroke-linecap="round" stroke-linejoin="round"/>
<path d="M31.9999 11.2854C31.9999 10.6108 31.4201 10.0632 30.7058 10.0632H29.4116C27.2673 10.0632 25.5293 11.7047 25.5293 13.7299V21.0633C25.5293 22.6571 26.6125 24.0004 28.1175 24.5052V30.1666C28.1175 31.1786 28.9872 31.9999 30.0587 31.9999C31.1302 31.9999 31.9999 31.1786 31.9999 30.1666V24.73V11.2854Z" stroke="#FAFAFA" stroke-width="2" stroke-linecap="round" stroke-linejoin="round"/>
</symbol>
<symbol id="icon-search" viewBox="0 0 24 24" fill="none">
<path d="M11 19C15.4183 19 19 15.4183 19 11C19 6.58172 15.4183 3 11 3C6.58172 3 3 6.58172 3 11C3 15.4183 6.58172 19 11 19Z" stroke="#22252A" stroke-width="2" stroke-linecap="round" stroke-linejoin="round"/>
<path d="M20.9999 21L16.6499 16.65" stroke="#22252A" stroke-width="2" stroke-linecap="round" stroke-linejoin="round"/>
</symbol>
<symbol width="32" height="32" id="icon-burger-menu" viewBox="0 0 32 32" fill="none">
<path d="M4 16H28M4 8H28M4 24H20" stroke="#22252A" stroke-width="2.5" stroke-linecap="round" stroke-linejoin="round"/>
</symbol>
<symbol  id="icon-edit" viewBox="0 0 14 15" fill="none">
<path d="M1.6262 11.5323C1.67215 11.1188 1.69512 10.9121 1.75768 10.7188C1.81318 10.5474 1.8916 10.3842 1.9908 10.2338C2.10262 10.0642 2.24971 9.91713 2.54389 9.62295L9.91684 2.25001C10.5612 1.60568 11.6058 1.60568 12.2502 2.25001V2.25001C12.8945 2.89434 12.8945 3.93901 12.2502 4.58334L4.87722 11.9563C4.58304 12.2505 4.43595 12.3976 4.26638 12.5094C4.11594 12.6086 3.95279 12.687 3.78134 12.7425C3.5881 12.8051 3.38135 12.828 2.96786 12.874L1.4585 13.0417L1.6262 11.5323Z" stroke="#23262A" stroke-width="1.3" stroke-linecap="round" stroke-linejoin="round"/>
</symbol>
<symbol  id="icon-arrow-right" viewBox="0 0 18 19" fill="none">
<path d="M2.75 9.5H12.75" stroke="#FAFAFA" stroke-width="1.3" stroke-linecap="round" stroke-linejoin="round"/>
<path d="M9 4.25L14.25 9.5L9 14.75" stroke="#FAFAFA" stroke-width="1.3" stroke-linecap="round" stroke-linejoin="round"/>
</symbol>
</defs>
</svg>
