<svg aria-hidden="true" style="position: absolute; width: 0; height: 0; overflow: hidden;" version="1.1" xmlns="http://www.w3.org/2000/svg" xmlns:xlink="http://www.w3.org/1999/xlink">
<defs>
<symbol id="icon-logo" viewBox="0 0 44 44" fill="#8BAA36">
<rect width="44" height="44" rx="12" fill="#8BAA36"/>
<path d="M10 10.1025V15.5561V15.6661V15.5561C10 17.1133 10.6794 18.4919 11.7328 19.3842C12.2479 19.8205 12.5882 20.4096 12.5882 21.0635V30.1667C12.5882 31.1788 13.4579 32.0001 14.5294 32.0001C15.6009 32.0001 16.4706 31.1788 16.4706 30.1667V21.0635C16.4706 20.4096 16.8109 19.8205 17.326 19.3842C18.3794 18.4919 19.0588 17.1133 19.0588 15.5561V10.1025V15.5561" stroke="#FAFAFA" stroke-width="2" stroke-linecap="round" stroke-linejoin="round"/>
<path d="M14.5293 16.1112V10" stroke="#FAFAFA" stroke-width="2" stroke-linecap="round" stroke-linejoin="round"/>
<path d="M31.9999 11.2854C31.9999 10.6108 31.4201 10.0632 30.7058 10.0632H29.4116C27.2673 10.0632 25.5293 11.7047 25.5293 13.7299V21.0633C25.5293 22.6571 26.6125 24.0004 28.1175 24.5052V30.1666C28.1175 31.1786 28.9872 31.9999 30.0587 31.9999C31.1302 31.9999 31.9999 31.1786 31.9999 30.1666V24.73V11.2854Z" stroke="#FAFAFA" stroke-width="2" stroke-linecap="round" stroke-linejoin="round"/>
</symbol>
<symbol id="icon-search" viewBox="0 0 24 24" fill="none">
<path d="M11 19C15.4183 19 19 15.4183 19 11C19 6.58172 15.4183 3 11 3C6.58172 3 3 6.58172 3 11C3 15.4183 6.58172 19 11 19Z" stroke="#22252A" stroke-width="2" stroke-linecap="round" stroke-linejoin="round"/>
<path d="M20.9999 21L16.6499 16.65" stroke="#22252A" stroke-width="2" stroke-linecap="round" stroke-linejoin="round"/>
</symbol>
<symbol width="32" height="32" id="icon-burger-menu" viewBox="0 0 32 32" fill="none">
<path d="M4 16H28M4 8H28M4 24H20" stroke="#22252A" stroke-width="2.5" stroke-linecap="round" stroke-linejoin="round"/>
</symbol>
<symbol  id="icon-edit" viewBox="0 0 14 15" fill="none">
<path d="M1.6262 11.5323C1.67215 11.1188 1.69512 10.9121 1.75768 10.7188C1.81318 10.5474 1.8916 10.3842 1.9908 10.2338C2.10262 10.0642 2.24971 9.91713 2.54389 9.62295L9.91684 2.25001C10.5612 1.60568 11.6058 1.60568 12.2502 2.25001V2.25001C12.8945 2.89434 12.8945 3.93901 12.2502 4.58334L4.87722 11.9563C4.58304 12.2505 4.43595 12.3976 4.26638 12.5094C4.11594 12.6086 3.95279 12.687 3.78134 12.7425C3.5881 12.8051 3.38135 12.828 2.96786 12.874L1.4585 13.0417L1.6262 11.5323Z" stroke="#23262A" stroke-width="1.3" stroke-linecap="round" stroke-linejoin="round"/>
</symbol>
<symbol  id="icon-arrow-right" viewBox="0 0 18 19" fill="none">
<path d="M2.75 9.5H12.75" stroke="#FAFAFA" stroke-width="1.3" stroke-linecap="round" stroke-linejoin="round"/>
<path d="M9 4.25L14.25 9.5L9 14.75" stroke="#FAFAFA" stroke-width="1.3" stroke-linecap="round" stroke-linejoin="round"/>
</symbol>
<symbol  id="icon-user" viewBox="0 0 24 25" fill="none">
<g opacity="0.8">
<path d="M20 21.5C20 20.1044 20 19.4067 19.8278 18.8389C19.44 17.5605 18.4395 16.56 17.1611 16.1722C16.5933 16 15.8956 16 14.5 16H9.5C8.10444 16 7.40665 16 6.83886 16.1722C5.56045 16.56 4.56004 17.5605 4.17224 18.8389C4 19.4067 4 20.1044 4 21.5M16.5 8C16.5 10.4853 14.4853 12.5 12 12.5C9.51472 12.5 7.5 10.4853 7.5 8C7.5 5.51472 9.51472 3.5 12 3.5C14.4853 3.5 16.5 5.51472 16.5 8Z" stroke="#23262A" stroke-width="2" stroke-linecap="round" stroke-linejoin="round"/>
</g>
</symbol>
<symbol  id="icon-mail" viewBox="0 0 22 19" fill="none">
<path d="M3 1.49976H19C19.5299 1.50134 20.0377 1.71256 20.4125 2.08729C20.7872 2.46202 20.9984 2.96981 21 3.49976V15.4998C20.9984 16.0297 20.7872 16.5375 20.4125 16.9122C20.0377 17.287 19.5299 17.4982 19 17.4998H3C2.47005 17.4982 1.96227 17.287 1.58753 16.9122C1.2128 16.5375 1.00158 16.0297 1 15.4998V3.49976C1.00158 2.96981 1.2128 2.46202 1.58753 2.08729C1.96227 1.71256 2.47005 1.50134 3 1.49976V1.49976Z" stroke="#FAFAFA" stroke-width="1.2" stroke-linecap="round" stroke-linejoin="round"/>
<path d="M21 3.49976L11 10.4998L1 3.49976" stroke="#FAFAFA" stroke-width="1.2" stroke-linecap="round" stroke-linejoin="round"/>
</symbol>
<symbol  id="icon-plus" viewBox="0 0 24 24" fill="none">
<circle cx="12" cy="12" r="12" fill="#8BAA36"/>
<path d="M12 6.75V17.25" stroke="#FAFAFA" stroke-width="2" stroke-linecap="round" stroke-linejoin="round"/>
<path d="M6.75 12H17.25" stroke="#FAFAFA" stroke-width="2" stroke-linecap="round" stroke-linejoin="round"/>
</symbol>
<symbol  id="icon-logo-footer" viewBox="0 0 44 44" fill="none">
<rect width="44" height="44" rx="12" fill="#EBF3D4"/>
<path d="M10 10.1025V15.5562V15.6662V15.5562C10 17.1133 10.6794 18.492 11.7328 19.3842C12.2479 19.8205 12.5882 20.4097 12.5882 21.0636V30.1668C12.5882 31.1788 13.4579 32.0001 14.5294 32.0001C15.6009 32.0001 16.4706 31.1788 16.4706 30.1668V21.0636C16.4706 20.4097 16.8109 19.8205 17.326 19.3842C18.3794 18.492 19.0588 17.1133 19.0588 15.5562V10.1025V15.5562" stroke="#8BAA36" stroke-width="2" stroke-linecap="round" stroke-linejoin="round"/>
<path d="M14.5293 16.1112V10" stroke="#8BAA36" stroke-width="2" stroke-linecap="round" stroke-linejoin="round"/>
<path d="M31.9999 11.2852C31.9999 10.6106 31.4201 10.063 30.7058 10.063H29.4116C27.2673 10.063 25.5293 11.7045 25.5293 13.7297V21.0631C25.5293 22.6569 26.6125 24.0002 28.1175 24.5049V30.1663C28.1175 31.1784 28.9872 31.9997 30.0587 31.9997C31.1302 31.9997 31.9999 31.1784 31.9999 30.1663V24.7298V11.2852Z" stroke="#8BAA36" stroke-width="2" stroke-linecap="round" stroke-linejoin="round"/>
</symbol>
<symbol  id="icon-facebook" viewBox="0 0 20 21" >
<path fill-rule="evenodd" clip-rule="evenodd" d="M20 10.5604C20 5.00473 15.5223 0.5 10 0.5C4.47768 0.5 0 5.00473 0 10.5604C0 15.5816 3.65625 19.7437 8.4375 20.4991V13.4694H5.89777V10.5604H8.4375V8.34397C8.4375 5.82303 9.9308 4.4294 12.2147 4.4294C13.3089 4.4294 14.4536 4.62611 14.4536 4.62611V7.10214H13.192C11.9504 7.10214 11.5621 7.87733 11.5621 8.67408V10.5604H14.3353L13.8924 13.4694H11.5625V20.5C16.3438 19.745 20 15.583 20 10.5604Z" />
</symbol>
<symbol  id="icon-instagram" viewBox="0 0 20 21" >
<path d="M14.1665 2.16652C15.2707 2.16982 16.3286 2.60989 17.1094 3.39064C17.8901 4.17138 18.3302 5.22935 18.3335 6.33348V14.6665C18.3302 15.7707 17.8901 16.8286 17.1094 17.6094C16.3286 18.3901 15.2707 18.8302 14.1665 18.8335H5.83348C4.72935 18.8302 3.67138 18.3901 2.89064 17.6094C2.10989 16.8286 1.66982 15.7707 1.66652 14.6665V6.33348C1.66982 5.22935 2.10989 4.17138 2.89064 3.39064C3.67138 2.60989 4.72935 2.16982 5.83348 2.16652H14.1665ZM14.1665 0.5H5.83348C2.625 0.5 0 3.125 0 6.33348V14.6665C0 17.875 2.625 20.5 5.83348 20.5H14.1665C17.375 20.5 20 17.875 20 14.6665V6.33348C20 3.125 17.375 0.5 14.1665 0.5Z" />
<path d="M15.4165 6.3352C15.1693 6.3352 14.9276 6.26189 14.7221 6.12454C14.5165 5.98719 14.3563 5.79197 14.2617 5.56356C14.1671 5.33515 14.1423 5.08382 14.1905 4.84134C14.2388 4.59887 14.3578 4.37614 14.5326 4.20132C14.7075 4.02651 14.9302 3.90746 15.1727 3.85922C15.4151 3.81099 15.6665 3.83575 15.8949 3.93036C16.1233 4.02497 16.3185 4.18518 16.4559 4.39074C16.5932 4.5963 16.6665 4.83798 16.6665 5.08521C16.6669 5.24946 16.6348 5.41216 16.5721 5.56398C16.5094 5.71579 16.4173 5.85373 16.3012 5.96988C16.185 6.08602 16.0471 6.17808 15.8953 6.24077C15.7435 6.30347 15.5808 6.33556 15.4165 6.3352ZM10 7.16824C10.6593 7.16824 11.3038 7.36375 11.852 7.73003C12.4002 8.09632 12.8274 8.61694 13.0797 9.22605C13.332 9.83517 13.3981 10.5054 13.2694 11.1521C13.1408 11.7987 12.8233 12.3927 12.3571 12.8588C11.8909 13.325 11.297 13.6425 10.6503 13.7711C10.0037 13.8998 9.33345 13.8338 8.72433 13.5815C8.11522 13.3292 7.5946 12.9019 7.22831 12.3537C6.86203 11.8055 6.66652 11.161 6.66652 10.5017C6.66747 9.61792 7.01897 8.77058 7.64392 8.14564C8.26886 7.52069 9.1162 7.16919 10 7.16824ZM10 5.50172C9.0111 5.50172 8.0444 5.79497 7.22215 6.34437C6.39991 6.89378 5.75904 7.67467 5.3806 8.5883C5.00217 9.50193 4.90315 10.5073 5.09608 11.4772C5.289 12.4471 5.76521 13.338 6.46447 14.0373C7.16373 14.7365 8.05465 15.2127 9.02455 15.4056C9.99446 15.5986 10.9998 15.4996 11.9134 15.1211C12.827 14.7427 13.6079 14.1018 14.1574 13.2796C14.7068 12.4573 15 11.4906 15 10.5017C15 9.17564 14.4732 7.90387 13.5355 6.96619C12.5979 6.02851 11.3261 5.50172 10 5.50172Z" />
</symbol>
<symbol  id="icon-youtube" viewBox="0 0 20 15" >
<path d="M19.8715 3.31202C19.8715 1.55425 18.5784 0.14023 16.9805 0.14023C14.8162 0.0390613 12.6089 0 10.3531 0H9.64989C7.39961 0 5.18839 0.0390614 3.02406 0.140621C1.43011 0.140621 0.136974 1.56246 0.136974 3.32022C0.039305 4.71042 -0.00210647 6.10101 0.000237572 7.49159C-0.00366917 8.88218 0.0406073 10.2741 0.133067 11.6673C0.133067 13.425 1.4262 14.8508 3.02015 14.8508C5.29387 14.9562 7.6262 15.0031 9.99759 14.9992C12.3729 15.007 14.6987 14.9575 16.975 14.8508C18.5729 14.8508 19.866 13.425 19.866 11.6673C19.9598 10.2728 20.0028 8.88218 19.9989 7.48769C20.0077 6.0971 19.9653 4.70521 19.8715 3.31202ZM8.0872 11.3235V3.64795L13.752 7.48378L8.0872 11.3235Z" />
</symbol>
<symbol  id="icon-twitter" viewBox="0 0 20 17" >
<path d="M20 2.39583C19.2498 2.72181 18.456 2.93658 17.6438 3.03333C18.4974 2.53349 19.1393 1.73941 19.4492 0.800006C18.6421 1.27192 17.7606 1.60303 16.8425 1.77917C16.4559 1.37398 15.9909 1.05163 15.4758 0.831733C14.9607 0.611834 14.4063 0.498972 13.8463 0.500007C11.5788 0.500007 9.74375 2.30833 9.74375 4.53749C9.74214 4.84756 9.77767 5.15671 9.84958 5.45832C8.22362 5.3821 6.63147 4.96732 5.17499 4.24052C3.71852 3.51372 2.42979 2.4909 1.39125 1.2375C1.02691 1.85172 0.834222 2.55252 0.833333 3.26666C0.833333 4.66666 1.56375 5.90416 2.66667 6.62915C2.01322 6.61365 1.37316 6.4407 0.800833 6.12499V6.17499C0.800833 8.13332 2.2175 9.76248 4.0925 10.1333C3.73991 10.2273 3.37657 10.2749 3.01167 10.275C2.75274 10.2754 2.4944 10.2503 2.24042 10.2C2.76167 11.8041 4.27875 12.9708 6.07583 13.0041C4.61557 14.1295 2.82276 14.7378 0.979167 14.7333C0.651924 14.7328 0.324986 14.7133 0 14.675C1.87549 15.8726 4.0556 16.506 6.28083 16.5C13.8375 16.5 17.9658 10.3458 17.9658 5.00833C17.9658 4.83333 17.9613 4.65833 17.9529 4.48749C18.7542 3.91752 19.4474 3.20921 20 2.39583Z" />
</symbol>
</defs>
</svg>
