<svg xmlns="http://www.w3.org/2000/svg" width="22" height="22" fill="none"><path stroke="#22252A" stroke-linecap="round" stroke-linejoin="round" stroke-width="2" d="M14.667 5.5v-.733c0-1.027 0-1.54-.2-1.933a1.833 1.833 0 0 0-.801-.8c-.393-.2-.906-.2-1.933-.2h-1.466c-1.027 0-1.54 0-1.933.2a1.833 1.833 0 0 0-.8.8c-.2.393-.2.906-.2 1.933V5.5m1.833 5.042v4.583m3.666-4.583v4.583M2.75 5.5h16.5m-1.833 0v10.267c0 1.54 0 2.31-.3 2.898a2.749 2.749 0 0 1-1.202 1.202c-.588.3-1.358.3-2.898.3H8.983c-1.54 0-2.31 0-2.898-.3a2.75 2.75 0 0 1-1.202-1.202c-.3-.588-.3-1.358-.3-2.898V5.5"/></svg>