<svg width="8" height="15" viewBox="0 0 8 15" fill="none" xmlns="http://www.w3.org/2000/svg">
<path d="M7.64471 1.05685C7.75733 1.1721 7.84669 1.30898 7.90765 1.45968C7.96862 1.61038 8 1.77192 8 1.93507C8 2.09821 7.96862 2.25976 7.90765 2.41045C7.84669 2.56115 7.75733 2.69803 7.64471 2.81328L2.93089 7.64655L7.64471 12.4798C7.87187 12.7127 7.99949 13.0286 7.99949 13.358C7.99949 13.6874 7.87187 14.0033 7.64471 14.2362C7.41755 14.4692 7.10945 14.6 6.7882 14.6C6.46695 14.6 6.15886 14.4692 5.9317 14.2362L0.35529 8.51853C0.242664 8.40329 0.153311 8.2664 0.0923453 8.11571C0.0313797 7.96501 -3.4931e-07 7.80347 -3.4931e-07 7.64032C-3.4931e-07 7.47717 0.0313797 7.31563 0.0923453 7.16494C0.153311 7.01424 0.242664 6.87735 0.35529 6.76211L5.9317 1.0444C6.39336 0.571035 7.1709 0.571036 7.64471 1.05685Z" fill="#A9A9A9"/>
</svg>
