<svg width="8" height="15" viewBox="0 0 8 15" fill="none" xmlns="http://www.w3.org/2000/svg">
<path d="M0.355291 1.05685C0.242666 1.1721 0.153312 1.30898 0.0923468 1.45968C0.0313812 1.61038 0 1.77192 0 1.93507C0 2.09821 0.0313812 2.25976 0.0923468 2.41045C0.153312 2.56115 0.242666 2.69803 0.355291 2.81328L5.06911 7.64655L0.355291 12.4798C0.128132 12.7127 0.000514428 13.0286 0.000514428 13.358C0.000514428 13.6874 0.128132 14.0033 0.355291 14.2362C0.582451 14.4692 0.890546 14.6 1.2118 14.6C1.53305 14.6 1.84114 14.4692 2.0683 14.2362L7.64471 8.51853C7.75734 8.40329 7.84669 8.2664 7.90765 8.11571C7.96862 7.96501 8 7.80347 8 7.64032C8 7.47718 7.96862 7.31563 7.90765 7.16494C7.84669 7.01424 7.75734 6.87735 7.64471 6.76211L2.0683 1.0444C1.60664 0.571035 0.829104 0.571036 0.355291 1.05685Z" fill="#A9A9A9"/>
</svg>
