<svg aria-hidden="true" style="position: absolute; width: 0; height: 0; overflow: hidden;" version="1.1" xmlns="http://www.w3.org/2000/svg" xmlns:xlink="http://www.w3.org/1999/xlink">
<defs>
<symbol id="icon-paginationBackArrow-mobile" viewBox="0 0 17 32">
<path fill="#a9a9a9" style="fill: var(--color1, #a9a9a9)" d="M16.309 2.255c0.24 0.246 0.431 0.538 0.561 0.859s0.197 0.666 0.197 1.014c0 0.348-0.067 0.693-0.197 1.014s-0.321 0.614-0.561 0.859l-10.056 10.311 10.056 10.311c0.485 0.497 0.757 1.171 0.757 1.873s-0.272 1.377-0.757 1.873c-0.485 0.497-1.142 0.776-1.827 0.776s-1.343-0.279-1.827-0.776l-11.896-12.198c-0.24-0.246-0.431-0.538-0.561-0.859s-0.197-0.666-0.197-1.014c0-0.348 0.067-0.693 0.197-1.014s0.321-0.614 0.561-0.859l11.896-12.198c0.985-1.010 2.644-1.010 3.654 0.027z"></path>
</symbol>
<symbol id="icon-paginationBackArrow" viewBox="0 0 17 32">
<path fill="#a9a9a9" style="fill: var(--color1, #a9a9a9)" d="M16.309 0.842c0.24 0.265 0.431 0.58 0.561 0.927s0.197 0.718 0.197 1.094c0 0.375-0.067 0.747-0.197 1.094s-0.321 0.662-0.561 0.927l-10.056 11.12 10.056 11.12c0.485 0.536 0.757 1.263 0.757 2.020s-0.272 1.485-0.757 2.020c-0.485 0.536-1.142 0.837-1.827 0.837s-1.343-0.301-1.827-0.837l-11.896-13.154c-0.24-0.265-0.431-0.58-0.561-0.927s-0.197-0.718-0.197-1.094c0-0.375 0.067-0.747 0.197-1.094s0.321-0.662 0.561-0.927l11.896-13.154c0.985-1.089 2.644-1.089 3.654 0.029z"></path>
</symbol>
<symbol id="icon-paginationForwardArrow-mobile" viewBox="0 0 17 32">
<path fill="#a9a9a9" style="fill: var(--color1, #a9a9a9)" d="M0.758 2.255c-0.24 0.246-0.431 0.538-0.561 0.859s-0.197 0.666-0.197 1.014c0 0.348 0.067 0.693 0.197 1.014s0.321 0.614 0.561 0.859l10.056 10.311-10.056 10.311c-0.485 0.497-0.757 1.171-0.757 1.873s0.272 1.377 0.757 1.873c0.485 0.497 1.142 0.776 1.827 0.776s1.343-0.279 1.827-0.776l11.896-12.198c0.24-0.246 0.431-0.538 0.561-0.859s0.197-0.666 0.197-1.014c0-0.348-0.067-0.693-0.197-1.014s-0.321-0.614-0.561-0.859l-11.896-12.198c-0.985-1.010-2.644-1.010-3.654 0.027z"></path>
</symbol>
<symbol id="icon-paginationForwardArrow" viewBox="0 0 17 32">
<path fill="#a9a9a9" style="fill: var(--color1, #a9a9a9)" d="M0.758 0.842c-0.24 0.265-0.431 0.58-0.561 0.927s-0.197 0.718-0.197 1.094c0 0.375 0.067 0.747 0.197 1.094s0.321 0.662 0.561 0.927l10.056 11.12-10.056 11.12c-0.485 0.536-0.757 1.263-0.757 2.020s0.272 1.485 0.757 2.020c0.485 0.536 1.142 0.837 1.827 0.837s1.343-0.301 1.827-0.837l11.896-13.154c0.24-0.265 0.431-0.58 0.561-0.927s0.197-0.718 0.197-1.094c0-0.375-0.067-0.747-0.197-1.094s-0.321-0.662-0.561-0.927l-11.896-13.154c-0.985-1.089-2.644-1.089-3.654 0.029z"></path>
</symbol>
</defs>
</svg>
